<mxfile host="app.diagrams.net" agent="Mozilla/5.0 (Windows NT 10.0; Win64; x64) AppleWebKit/537.36 (KHTML, like Gecko) Chrome/128.0.0.0 Safari/537.36 OPR/114.0.0.0" version="24.7.17">
  <diagram name="Página-1" id="7f0OpOz4S0Kv9Umego_i">
    <mxGraphModel dx="2220" dy="796" grid="1" gridSize="10" guides="1" tooltips="1" connect="1" arrows="1" fold="1" page="1" pageScale="1" pageWidth="827" pageHeight="1169" math="0" shadow="0">
      <root>
        <mxCell id="0" />
        <mxCell id="1" parent="0" />
        <mxCell id="EW_JFHV-VFKQ5UH2Ij4r-32" style="edgeStyle=orthogonalEdgeStyle;rounded=0;orthogonalLoop=1;jettySize=auto;html=1;entryX=0.5;entryY=0;entryDx=0;entryDy=0;endArrow=none;endFill=0;" edge="1" parent="1" source="EW_JFHV-VFKQ5UH2Ij4r-1" target="EW_JFHV-VFKQ5UH2Ij4r-27">
          <mxGeometry relative="1" as="geometry">
            <Array as="points">
              <mxPoint x="90" y="200" />
              <mxPoint x="970" y="200" />
            </Array>
          </mxGeometry>
        </mxCell>
        <mxCell id="EW_JFHV-VFKQ5UH2Ij4r-33" style="edgeStyle=orthogonalEdgeStyle;rounded=0;orthogonalLoop=1;jettySize=auto;html=1;entryX=0.5;entryY=0;entryDx=0;entryDy=0;endArrow=none;endFill=0;" edge="1" parent="1" source="EW_JFHV-VFKQ5UH2Ij4r-1" target="EW_JFHV-VFKQ5UH2Ij4r-3">
          <mxGeometry relative="1" as="geometry">
            <Array as="points">
              <mxPoint x="90" y="270" />
              <mxPoint x="700" y="270" />
            </Array>
          </mxGeometry>
        </mxCell>
        <mxCell id="EW_JFHV-VFKQ5UH2Ij4r-34" style="edgeStyle=orthogonalEdgeStyle;rounded=0;orthogonalLoop=1;jettySize=auto;html=1;entryX=0;entryY=0.5;entryDx=0;entryDy=0;endArrow=none;endFill=0;" edge="1" parent="1" source="EW_JFHV-VFKQ5UH2Ij4r-37" target="EW_JFHV-VFKQ5UH2Ij4r-2">
          <mxGeometry relative="1" as="geometry" />
        </mxCell>
        <mxCell id="EW_JFHV-VFKQ5UH2Ij4r-1" value="Alocação" style="whiteSpace=wrap;html=1;align=center;" vertex="1" parent="1">
          <mxGeometry x="40" y="340" width="100" height="40" as="geometry" />
        </mxCell>
        <mxCell id="EW_JFHV-VFKQ5UH2Ij4r-2" value="Automóvel" style="whiteSpace=wrap;html=1;align=center;" vertex="1" parent="1">
          <mxGeometry x="400" y="340" width="100" height="40" as="geometry" />
        </mxCell>
        <mxCell id="EW_JFHV-VFKQ5UH2Ij4r-3" value="Cliente" style="whiteSpace=wrap;html=1;align=center;" vertex="1" parent="1">
          <mxGeometry x="650" y="340" width="100" height="40" as="geometry" />
        </mxCell>
        <mxCell id="EW_JFHV-VFKQ5UH2Ij4r-14" style="rounded=0;orthogonalLoop=1;jettySize=auto;html=1;entryX=0.5;entryY=1;entryDx=0;entryDy=0;endArrow=none;endFill=0;" edge="1" parent="1" source="EW_JFHV-VFKQ5UH2Ij4r-5" target="EW_JFHV-VFKQ5UH2Ij4r-1">
          <mxGeometry relative="1" as="geometry" />
        </mxCell>
        <mxCell id="EW_JFHV-VFKQ5UH2Ij4r-5" value="&lt;span style=&quot;border-bottom: 1px dotted&quot;&gt;ClienteID&lt;/span&gt;" style="ellipse;whiteSpace=wrap;html=1;align=center;" vertex="1" parent="1">
          <mxGeometry x="90" y="545" width="100" height="40" as="geometry" />
        </mxCell>
        <mxCell id="EW_JFHV-VFKQ5UH2Ij4r-16" style="rounded=0;orthogonalLoop=1;jettySize=auto;html=1;endArrow=none;endFill=0;" edge="1" parent="1" source="EW_JFHV-VFKQ5UH2Ij4r-6">
          <mxGeometry relative="1" as="geometry">
            <mxPoint x="90" y="380" as="targetPoint" />
          </mxGeometry>
        </mxCell>
        <mxCell id="EW_JFHV-VFKQ5UH2Ij4r-6" value="&lt;span style=&quot;border-bottom: 1px dotted&quot;&gt;AutomóveID&lt;/span&gt;" style="ellipse;whiteSpace=wrap;html=1;align=center;" vertex="1" parent="1">
          <mxGeometry x="200" y="410" width="100" height="40" as="geometry" />
        </mxCell>
        <mxCell id="EW_JFHV-VFKQ5UH2Ij4r-15" style="rounded=0;orthogonalLoop=1;jettySize=auto;html=1;endArrow=none;endFill=0;" edge="1" parent="1" source="EW_JFHV-VFKQ5UH2Ij4r-7">
          <mxGeometry relative="1" as="geometry">
            <mxPoint x="90" y="380" as="targetPoint" />
          </mxGeometry>
        </mxCell>
        <mxCell id="EW_JFHV-VFKQ5UH2Ij4r-7" value="&lt;span style=&quot;border-bottom: 1px dotted&quot;&gt;ConcessionáriaID&lt;/span&gt;" style="ellipse;whiteSpace=wrap;html=1;align=center;" vertex="1" parent="1">
          <mxGeometry x="170" y="490" width="100" height="40" as="geometry" />
        </mxCell>
        <mxCell id="EW_JFHV-VFKQ5UH2Ij4r-11" style="rounded=0;orthogonalLoop=1;jettySize=auto;html=1;entryX=0.5;entryY=1;entryDx=0;entryDy=0;endArrow=none;endFill=0;" edge="1" parent="1" source="EW_JFHV-VFKQ5UH2Ij4r-8" target="EW_JFHV-VFKQ5UH2Ij4r-1">
          <mxGeometry relative="1" as="geometry" />
        </mxCell>
        <mxCell id="EW_JFHV-VFKQ5UH2Ij4r-8" value="ID" style="ellipse;whiteSpace=wrap;html=1;align=center;fontStyle=4;" vertex="1" parent="1">
          <mxGeometry x="-120" y="410" width="100" height="40" as="geometry" />
        </mxCell>
        <mxCell id="EW_JFHV-VFKQ5UH2Ij4r-12" style="rounded=0;orthogonalLoop=1;jettySize=auto;html=1;endArrow=none;endFill=0;" edge="1" parent="1" source="EW_JFHV-VFKQ5UH2Ij4r-9">
          <mxGeometry relative="1" as="geometry">
            <mxPoint x="90" y="380" as="targetPoint" />
          </mxGeometry>
        </mxCell>
        <mxCell id="EW_JFHV-VFKQ5UH2Ij4r-9" value="Quantidade" style="ellipse;whiteSpace=wrap;html=1;align=center;" vertex="1" parent="1">
          <mxGeometry x="-80" y="490" width="100" height="40" as="geometry" />
        </mxCell>
        <mxCell id="EW_JFHV-VFKQ5UH2Ij4r-13" style="rounded=0;orthogonalLoop=1;jettySize=auto;html=1;endArrow=none;endFill=0;" edge="1" parent="1" source="EW_JFHV-VFKQ5UH2Ij4r-10">
          <mxGeometry relative="1" as="geometry">
            <mxPoint x="90" y="380" as="targetPoint" />
          </mxGeometry>
        </mxCell>
        <mxCell id="EW_JFHV-VFKQ5UH2Ij4r-10" value="AreaID" style="ellipse;whiteSpace=wrap;html=1;align=center;" vertex="1" parent="1">
          <mxGeometry x="-30" y="545" width="100" height="40" as="geometry" />
        </mxCell>
        <mxCell id="EW_JFHV-VFKQ5UH2Ij4r-20" style="rounded=0;orthogonalLoop=1;jettySize=auto;html=1;entryX=0.5;entryY=1;entryDx=0;entryDy=0;endArrow=none;endFill=0;" edge="1" parent="1" source="EW_JFHV-VFKQ5UH2Ij4r-17" target="EW_JFHV-VFKQ5UH2Ij4r-2">
          <mxGeometry relative="1" as="geometry" />
        </mxCell>
        <mxCell id="EW_JFHV-VFKQ5UH2Ij4r-17" value="ID" style="ellipse;whiteSpace=wrap;html=1;align=center;fontStyle=4;" vertex="1" parent="1">
          <mxGeometry x="330" y="410" width="100" height="40" as="geometry" />
        </mxCell>
        <mxCell id="EW_JFHV-VFKQ5UH2Ij4r-21" style="rounded=0;orthogonalLoop=1;jettySize=auto;html=1;entryX=0.5;entryY=1;entryDx=0;entryDy=0;endArrow=none;endFill=0;" edge="1" parent="1" source="EW_JFHV-VFKQ5UH2Ij4r-18" target="EW_JFHV-VFKQ5UH2Ij4r-2">
          <mxGeometry relative="1" as="geometry" />
        </mxCell>
        <mxCell id="EW_JFHV-VFKQ5UH2Ij4r-18" value="Modelo" style="ellipse;whiteSpace=wrap;html=1;align=center;" vertex="1" parent="1">
          <mxGeometry x="400" y="470" width="100" height="40" as="geometry" />
        </mxCell>
        <mxCell id="EW_JFHV-VFKQ5UH2Ij4r-22" style="rounded=0;orthogonalLoop=1;jettySize=auto;html=1;entryX=0.5;entryY=1;entryDx=0;entryDy=0;endArrow=none;endFill=0;" edge="1" parent="1" source="EW_JFHV-VFKQ5UH2Ij4r-19" target="EW_JFHV-VFKQ5UH2Ij4r-2">
          <mxGeometry relative="1" as="geometry" />
        </mxCell>
        <mxCell id="EW_JFHV-VFKQ5UH2Ij4r-19" value="Preço" style="ellipse;whiteSpace=wrap;html=1;align=center;" vertex="1" parent="1">
          <mxGeometry x="470" y="410" width="100" height="40" as="geometry" />
        </mxCell>
        <mxCell id="EW_JFHV-VFKQ5UH2Ij4r-25" style="rounded=0;orthogonalLoop=1;jettySize=auto;html=1;entryX=0.5;entryY=1;entryDx=0;entryDy=0;endArrow=none;endFill=0;" edge="1" parent="1" source="EW_JFHV-VFKQ5UH2Ij4r-23" target="EW_JFHV-VFKQ5UH2Ij4r-3">
          <mxGeometry relative="1" as="geometry" />
        </mxCell>
        <mxCell id="EW_JFHV-VFKQ5UH2Ij4r-23" value="ID" style="ellipse;whiteSpace=wrap;html=1;align=center;fontStyle=4;" vertex="1" parent="1">
          <mxGeometry x="580" y="410" width="100" height="40" as="geometry" />
        </mxCell>
        <mxCell id="EW_JFHV-VFKQ5UH2Ij4r-26" style="rounded=0;orthogonalLoop=1;jettySize=auto;html=1;entryX=0.5;entryY=1;entryDx=0;entryDy=0;endArrow=none;endFill=0;" edge="1" parent="1" source="EW_JFHV-VFKQ5UH2Ij4r-24" target="EW_JFHV-VFKQ5UH2Ij4r-3">
          <mxGeometry relative="1" as="geometry" />
        </mxCell>
        <mxCell id="EW_JFHV-VFKQ5UH2Ij4r-24" value="Nome" style="ellipse;whiteSpace=wrap;html=1;align=center;" vertex="1" parent="1">
          <mxGeometry x="720" y="410" width="100" height="40" as="geometry" />
        </mxCell>
        <mxCell id="EW_JFHV-VFKQ5UH2Ij4r-27" value="Concessionária" style="whiteSpace=wrap;html=1;align=center;" vertex="1" parent="1">
          <mxGeometry x="920" y="340" width="100" height="40" as="geometry" />
        </mxCell>
        <mxCell id="EW_JFHV-VFKQ5UH2Ij4r-28" style="rounded=0;orthogonalLoop=1;jettySize=auto;html=1;entryX=0.5;entryY=1;entryDx=0;entryDy=0;endArrow=none;endFill=0;" edge="1" parent="1" source="EW_JFHV-VFKQ5UH2Ij4r-29" target="EW_JFHV-VFKQ5UH2Ij4r-27">
          <mxGeometry relative="1" as="geometry" />
        </mxCell>
        <mxCell id="EW_JFHV-VFKQ5UH2Ij4r-29" value="ID" style="ellipse;whiteSpace=wrap;html=1;align=center;fontStyle=4;" vertex="1" parent="1">
          <mxGeometry x="850" y="410" width="100" height="40" as="geometry" />
        </mxCell>
        <mxCell id="EW_JFHV-VFKQ5UH2Ij4r-30" style="rounded=0;orthogonalLoop=1;jettySize=auto;html=1;entryX=0.5;entryY=1;entryDx=0;entryDy=0;endArrow=none;endFill=0;" edge="1" parent="1" source="EW_JFHV-VFKQ5UH2Ij4r-31" target="EW_JFHV-VFKQ5UH2Ij4r-27">
          <mxGeometry relative="1" as="geometry" />
        </mxCell>
        <mxCell id="EW_JFHV-VFKQ5UH2Ij4r-31" value="Nome" style="ellipse;whiteSpace=wrap;html=1;align=center;" vertex="1" parent="1">
          <mxGeometry x="990" y="410" width="100" height="40" as="geometry" />
        </mxCell>
        <mxCell id="EW_JFHV-VFKQ5UH2Ij4r-35" value="Possui" style="shape=rhombus;perimeter=rhombusPerimeter;whiteSpace=wrap;html=1;align=center;" vertex="1" parent="1">
          <mxGeometry x="470" y="170" width="120" height="60" as="geometry" />
        </mxCell>
        <mxCell id="EW_JFHV-VFKQ5UH2Ij4r-36" value="Possui" style="shape=rhombus;perimeter=rhombusPerimeter;whiteSpace=wrap;html=1;align=center;" vertex="1" parent="1">
          <mxGeometry x="330" y="240" width="120" height="60" as="geometry" />
        </mxCell>
        <mxCell id="EW_JFHV-VFKQ5UH2Ij4r-38" value="" style="edgeStyle=orthogonalEdgeStyle;rounded=0;orthogonalLoop=1;jettySize=auto;html=1;entryX=0;entryY=0.5;entryDx=0;entryDy=0;endArrow=none;endFill=0;" edge="1" parent="1" source="EW_JFHV-VFKQ5UH2Ij4r-1" target="EW_JFHV-VFKQ5UH2Ij4r-37">
          <mxGeometry relative="1" as="geometry">
            <mxPoint x="140" y="360" as="sourcePoint" />
            <mxPoint x="400" y="360" as="targetPoint" />
          </mxGeometry>
        </mxCell>
        <mxCell id="EW_JFHV-VFKQ5UH2Ij4r-37" value="Possui" style="shape=rhombus;perimeter=rhombusPerimeter;whiteSpace=wrap;html=1;align=center;" vertex="1" parent="1">
          <mxGeometry x="220" y="330" width="120" height="60" as="geometry" />
        </mxCell>
        <mxCell id="EW_JFHV-VFKQ5UH2Ij4r-39" value="1" style="text;html=1;align=center;verticalAlign=middle;resizable=0;points=[];autosize=1;strokeColor=none;fillColor=none;" vertex="1" parent="1">
          <mxGeometry x="82" y="315" width="30" height="30" as="geometry" />
        </mxCell>
        <mxCell id="EW_JFHV-VFKQ5UH2Ij4r-40" value="1" style="text;html=1;align=center;verticalAlign=middle;resizable=0;points=[];autosize=1;strokeColor=none;fillColor=none;" vertex="1" parent="1">
          <mxGeometry x="84" y="264" width="30" height="30" as="geometry" />
        </mxCell>
        <mxCell id="EW_JFHV-VFKQ5UH2Ij4r-41" value="1" style="text;html=1;align=center;verticalAlign=middle;resizable=0;points=[];autosize=1;strokeColor=none;fillColor=none;" vertex="1" parent="1">
          <mxGeometry x="84" y="200" width="30" height="30" as="geometry" />
        </mxCell>
        <mxCell id="EW_JFHV-VFKQ5UH2Ij4r-42" value="1" style="text;html=1;align=center;verticalAlign=middle;resizable=0;points=[];autosize=1;strokeColor=none;fillColor=none;" vertex="1" parent="1">
          <mxGeometry x="375" y="332" width="30" height="30" as="geometry" />
        </mxCell>
        <mxCell id="EW_JFHV-VFKQ5UH2Ij4r-43" value="1" style="text;html=1;align=center;verticalAlign=middle;resizable=0;points=[];autosize=1;strokeColor=none;fillColor=none;" vertex="1" parent="1">
          <mxGeometry x="677" y="315" width="30" height="30" as="geometry" />
        </mxCell>
        <mxCell id="EW_JFHV-VFKQ5UH2Ij4r-44" value="1" style="text;html=1;align=center;verticalAlign=middle;resizable=0;points=[];autosize=1;strokeColor=none;fillColor=none;" vertex="1" parent="1">
          <mxGeometry x="940" y="313" width="30" height="30" as="geometry" />
        </mxCell>
      </root>
    </mxGraphModel>
  </diagram>
</mxfile>
